<?xml version="1.0" standalone="no"?>
<!DOCTYPE svg PUBLIC "-//W3C//DTD SVG 20010904//EN"
 "http://www.w3.org/TR/2001/REC-SVG-20010904/DTD/svg10.dtd">
<svg version="1.0" xmlns="http://www.w3.org/2000/svg"
 width="512.000000pt" height="512.000000pt" viewBox="0 0 512.000000 512.000000"
 preserveAspectRatio="xMidYMid meet">

<g transform="translate(0.000000,512.000000) scale(0.100000,-0.100000)"
fill="#000000" stroke="none">
<path d="M3570 4629 c-29 -12 -67 -45 -83 -74 -7 -12 -14 -86 -17 -180 l-5
-160 -1442 -5 c-1436 -5 -1442 -5 -1469 -26 -98 -72 -96 -204 3 -265 l38 -24
1438 -3 1437 -2 0 -151 c0 -168 9 -203 63 -241 47 -34 132 -37 176 -6 66 44
76 74 79 245 l4 152 366 3 c365 3 367 3 405 27 51 31 81 91 74 149 -5 50 -29
87 -77 120 -33 22 -36 22 -401 22 l-367 0 -4 158 c-3 144 -5 160 -27 195 -39
64 -124 93 -191 66z"/>
<path d="M1446 3140 c-41 -13 -94 -68 -106 -110 -5 -19 -10 -97 -10 -172 l0
-137 -374 -3 c-360 -3 -376 -4 -402 -24 -53 -39 -69 -71 -69 -134 0 -63 16
-95 69 -134 26 -20 42 -21 402 -24 l374 -3 0 -137 c0 -75 5 -153 10 -174 14
-49 76 -104 129 -113 53 -9 126 25 158 74 21 32 23 45 23 192 l0 159 1444 2
c1441 3 1445 3 1472 24 53 39 69 71 69 134 0 63 -16 95 -69 134 -27 21 -31 21
-1472 24 l-1444 2 0 159 c0 147 -2 160 -23 192 -23 36 -97 80 -132 78 -11 0
-33 -5 -49 -9z"/>
<path d="M3552 1633 c-18 -9 -43 -30 -55 -47 -20 -28 -22 -44 -25 -193 l-3
-163 -1437 -2 c-1430 -3 -1437 -3 -1472 -24 -101 -59 -104 -195 -6 -268 27
-21 33 -21 1469 -26 l1442 -5 5 -162 c4 -143 7 -165 26 -189 72 -98 204 -96
265 3 22 35 24 51 27 196 l4 157 367 0 c365 0 368 0 401 23 47 31 71 67 77
115 7 55 -26 123 -75 154 -37 23 -42 23 -404 26 l-366 3 -4 152 c-3 132 -6
157 -24 187 -43 74 -134 102 -212 63z"/>
</g>
</svg>
