<?xml version="1.0" encoding="UTF-8"?>
<svg version="1.1" xmlns="http://www.w3.org/2000/svg" width="128" height="128">
    <path d="M0 0 C3.62401147 -0.65351027 5.50161718 -0.9312242 9 0 C11.62033334 2.17113334 13.86223645 4.3682067 16.10473633 6.91137695 C18.85381419 10.01510879 21.00171304 11.80626684 25 13 C25.99 11.68 26.98 10.36 28 9 C27.4946875 8.51789063 26.989375 8.03578125 26.46875 7.5390625 C25.8190625 6.90742187 25.169375 6.27578125 24.5 5.625 C23.8503125 4.99851562 23.200625 4.37203125 22.53125 3.7265625 C21 2 21 2 21 0 C27.02536998 -0.602537 27.02536998 -0.602537 29.80078125 1.11328125 C31.25599455 2.34621853 32.63479157 3.66808933 34 5 C34.66 4.175 35.32 3.35 36 2.5 C39.16474721 -0.13728934 40.88296501 -0.74195645 44.99609375 -0.5078125 C48.52121611 0.38549336 50.46061599 2.46061599 53 5 C53.680625 4.175 54.36125 3.35 55.0625 2.5 C58 0 58 0 61.8125 -0.3125 C62.864375 -0.209375 63.91625 -0.10625 65 0 C63.33248852 3.94139078 60.77289351 6.7892812 58 10 C58.99 10.99 59.98 11.98 61 13 C65.6811186 11.60239984 68.118238 8.92666305 71.25 5.375 C75.98551395 0.27004305 75.98551395 0.27004305 79.71484375 -0.72265625 C82.1875 -0.6875 82.1875 -0.6875 86 0 C84.9595441 4.73985468 83.07824399 9.18766759 81.3515625 13.7109375 C77.39273122 25.48015788 76.29937365 37.52384519 75.375 49.8125 C75.19498668 52.13366105 75.01228499 54.45453504 74.82437134 56.77507019 C74.70918401 58.20364277 74.59878846 59.63261176 74.4937439 61.06196594 C74.11167377 65.88832623 74.11167377 65.88832623 73 67 C70.75 67.375 70.75 67.375 68 67 C65.1875 64.625 65.1875 64.625 63 62 C63 61.34 63 60.68 63 60 C62.21625 60.78375 61.4325 61.5675 60.625 62.375 C56 67 56 67 53.1875 67.4375 C49.01270092 66.86448836 47.83981294 64.98927678 45 62 C43.68 62 42.36 62 41 62 C40.21625 62.825 39.4325 63.65 38.625 64.5 C36 67 36 67 33 67.6875 C28.6517257 66.69102047 27.61238117 64.55574104 25 61 C24.34 60.67 23.68 60.34 23 60 C22.5978125 60.8971875 22.5978125 60.8971875 22.1875 61.8125 C20.96145198 64.07100952 20.06465419 65.47062652 18 67 C15.375 67.25 15.375 67.25 13 67 C11.08513664 65.08513664 11.57275946 61.65283622 11.38671875 59.09765625 C11.27493667 57.64317004 11.16235682 56.18874496 11.04907227 54.734375 C10.99051056 53.97060547 10.93194885 53.20683594 10.87161255 52.41992188 C9.04621693 28.60477425 9.04621693 28.60477425 1.83203125 5.9453125 C0.99261289 3.98272874 0.46185324 2.08067217 0 0 Z M42 5 C40.61767557 6.62626404 39.28062485 8.2925002 38 10 C39.32 11.32 40.64 12.64 42 14 C45.16115776 12.63016497 45.9927092 12.0109362 48 9 C46.71034824 7.62437146 45.37310707 6.29233607 44 5 C43.34 5 42.68 5 42 5 Z M11 11 C11.54855348 15.571279 12.41744803 19.67435795 14 24 C15.65 22.68 17.3 21.36 19 20 C17.4169423 15.7257442 14.49431596 13.73468206 11 11 Z M74 11 C71.69 13.31 69.38 15.62 67 18 C68.64856825 22.12403473 68.64856825 22.12403473 72 24 C72.53394179 22.5882217 73.05165104 21.17029756 73.5625 19.75 C73.85253906 18.96109375 74.14257812 18.1721875 74.44140625 17.359375 C75.25632628 14.72333579 75.25632628 14.72333579 74 11 Z M33 14 C31.35 15.65 29.7 17.3 28 19 C29.98 20.65 31.96 22.3 34 24 C35.65 22.02 37.3 20.04 39 18 C37.02 16.68 35.04 15.36 33 14 Z M52 14 C50.35 15.65 48.7 17.3 47 19 C48.98 20.65 50.96 22.3 53 24 C54.65 22.02 56.3 20.04 58 18 C56.02 16.68 54.04 15.36 52 14 Z M23 23 C21.68 24.32 20.36 25.64 19 27 C20.04874998 29.62187494 20.64931313 30.79371361 23.125 32.25 C23.74375 32.4975 24.3625 32.745 25 33 C26.32 31.68 27.64 30.36 29 29 C27.95125002 26.37812506 27.35068687 25.20628639 24.875 23.75 C24.25625 23.5025 23.6375 23.255 23 23 Z M42 23 C40.68 24.32 39.36 25.64 38 27 C39.04874998 29.62187494 39.64931313 30.79371361 42.125 32.25 C42.74375 32.4975 43.3625 32.745 44 33 C45.32 31.68 46.64 30.36 48 29 C46.95125002 26.37812506 46.35068687 25.20628639 43.875 23.75 C43.25625 23.5025 42.6375 23.255 42 23 Z M61 23 C59.68 24.32 58.36 25.64 57 27 C58.04874998 29.62187494 58.64931313 30.79371361 61.125 32.25 C61.74375 32.4975 62.3625 32.745 63 33 C64.32 31.68 65.64 30.36 67 29 C65.95125002 26.37812506 65.35068687 25.20628639 62.875 23.75 C62.25625 23.5025 61.6375 23.255 61 23 Z M33 32 C31.30911778 33.97956942 29.64169528 35.97945196 28 38 C30.475 39.98 30.475 39.98 33 42 C34.98 40.68 36.96 39.36 39 38 C37.35830472 35.97945196 35.69088222 33.97956942 34 32 C33.67 32 33.34 32 33 32 Z M52 32 C50.35 33.98 48.7 35.96 47 38 C49.97 39.98 49.97 39.98 53 42 C54.65 40.35 56.3 38.7 58 37 C56.02 35.35 54.04 33.7 52 32 Z M15 33 C15.33 35.31 15.66 37.62 16 40 C17.32 39.01 18.64 38.02 20 37 C18.35 35.68 16.7 34.36 15 33 Z M70 33 C68.64172029 34.64639965 67.30745749 36.31295807 66 38 C67.98 38.99 67.98 38.99 70 40 C70.33 37.69 70.66 35.38 71 33 C70.67 33 70.34 33 70 33 Z M19 45 C20.04874998 47.62187494 20.64931313 48.79371361 23.125 50.25 C23.74375 50.4975 24.3625 50.745 25 51 C26.32 49.35 27.64 47.7 29 46 C27.71034824 44.62437146 26.37310707 43.29233607 25 42 C22.23776722 42 21.10718546 43.31425163 19 45 Z M42 42 C40.61767557 43.62626404 39.28062485 45.2925002 38 47 C39.32 48.32 40.64 49.64 42 51 C45.16115776 49.63016497 45.9927092 49.0109362 48 46 C46.71034824 44.62437146 45.37310707 43.29233607 44 42 C43.34 42 42.68 42 42 42 Z M61 42 C59.61767557 43.62626404 58.28062485 45.2925002 57 47 C58.32 48.32 59.64 49.64 61 51 C63.62187494 49.95125002 64.79371361 49.35068687 66.25 46.875 C66.62125 45.946875 66.62125 45.946875 67 45 C64.32752366 42.65712582 64.32752366 42.65712582 61 42 Z M33 50 C31.35 51.98 29.7 53.96 28 56 C29.98 57.65 31.96 59.3 34 61 C35.65 59.02 37.3 57.04 39 55 C37.02 53.35 35.04 51.7 33 50 Z M52 50 C50.35 51.98 48.7 53.96 47 56 C48.98 57.65 50.96 59.3 53 61 C54.65 59.02 56.3 57.04 58 55 C56.02 53.35 54.04 51.7 52 50 Z M17 53 C17 54.65 17 56.3 17 58 C17.99 57.01 18.98 56.02 20 55 C19.01 54.34 18.02 53.68 17 53 Z M68 53 C67.01 54.485 67.01 54.485 66 56 C67.485 56.99 67.485 56.99 69 58 C69 56.35 69 54.7 69 53 C68.67 53 68.34 53 68 53 Z " fill="#FFFFFF" transform="translate(21,61)"/>
    <path d="M0 0 C0.99265869 -0.00845947 1.98531738 -0.01691895 3.00805664 -0.02563477 C4.09594482 -0.01956207 5.18383301 -0.01348938 6.3046875 -0.00723267 C8.02449829 -0.0151181 8.02449829 -0.0151181 9.77905273 -0.02316284 C13.57940178 -0.0363964 17.37933399 -0.02761254 21.1796875 -0.01748657 C23.8138029 -0.01950633 26.44791776 -0.02241695 29.08203125 -0.02618408 C34.60681701 -0.03164314 40.1314825 -0.02444618 45.65625 -0.01016235 C52.04506571 0.00616457 58.43359421 0.00087616 64.82240295 -0.01564157 C70.96643894 -0.03089112 77.1103475 -0.02928318 83.25439453 -0.02049637 C85.86995483 -0.01849084 88.48552243 -0.02096594 91.10107422 -0.02793503 C94.75247801 -0.03552828 98.40332531 -0.02397438 102.0546875 -0.00723267 C103.14257568 -0.01330536 104.23046387 -0.01937805 105.35131836 -0.02563477 C106.34397705 -0.01717529 107.33663574 -0.00871582 108.359375 0 C109.65464111 0.00169662 109.65464111 0.00169662 110.97607422 0.00342751 C113.68048337 0.46674737 114.56880131 1.1881131 116.1796875 3.38095093 C116.82062674 8.50846483 116.82062674 8.50846483 114.95751953 11.04464149 C112.63207281 12.79256612 111.25402985 12.75811027 108.359375 12.76190186 C107.36671631 12.77036133 106.37405762 12.7788208 105.35131836 12.78753662 C104.26343018 12.78146393 103.17554199 12.77539124 102.0546875 12.76913452 C100.33487671 12.77701996 100.33487671 12.77701996 98.58032227 12.7850647 C94.77997322 12.79829826 90.98004101 12.78951439 87.1796875 12.77938843 C84.5455721 12.78140819 81.91145724 12.7843188 79.27734375 12.78808594 C73.75255799 12.79354499 68.2278925 12.78634804 62.703125 12.77206421 C56.31430929 12.75573728 49.92578079 12.76102569 43.53697205 12.77754343 C37.39293606 12.79279297 31.2490275 12.79118503 25.10498047 12.78239822 C22.48942017 12.78039269 19.87385257 12.7828678 17.25830078 12.78983688 C13.60689699 12.79743014 9.95604969 12.78587624 6.3046875 12.76913452 C5.21679932 12.77520721 4.12891113 12.78127991 3.00805664 12.78753662 C2.01539795 12.77907715 1.02273926 12.77061768 0 12.76190186 C-1.29526611 12.76020524 -1.29526611 12.76020524 -2.61669922 12.75847435 C-5.32110837 12.29515449 -6.20942631 11.57378876 -7.8203125 9.38095093 C-8.46125174 4.25343703 -8.46125174 4.25343703 -6.59814453 1.71726036 C-4.27269781 -0.03066426 -2.89465485 0.00379159 0 0 Z " fill="#FFFFFF" transform="translate(9.8203125,45.619049072265625)"/>
    <path d="M0 0 C5.92112028 1.61485099 10.1311734 5.98630666 13.30078125 11.09765625 C14.98012069 14.36473479 16.13786995 17.43155944 17 21 C16.38068604 21.10546143 15.76137207 21.21092285 15.12329102 21.31958008 C12.26839803 21.80998625 9.41549504 22.31117499 6.5625 22.8125 C5.58861328 22.97814453 4.61472656 23.14378906 3.61132812 23.31445312 C-1.86167785 24.28458462 -6.95728898 25.50418985 -12.14477539 27.51831055 C-14 28 -14 28 -17 27 C-14.45027684 15.03419394 -9.57588887 7.55863309 0 0 Z M-1.65625 8.5390625 C-5.17117756 12.51569665 -7.80462474 15.68722109 -9 21 C-8.01 21 -7.02 21 -6 21 C-4.53644249 19.53697745 -4.53644249 19.53697745 -3.3125 17.625 C-2.87550781 16.99851562 -2.43851563 16.37203125 -1.98828125 15.7265625 C-0.83440894 14.04227343 -0.83440894 14.04227343 -1 12 C0.32 11.34 1.64 10.68 3 10 C2.67 9.01 2.34 8.02 2 7 C-0.13264192 6.77309462 -0.13264192 6.77309462 -1.65625 8.5390625 Z " fill="#FFFFFF" transform="translate(45,4)"/>
    <path d="M0 0 C0.05472088 1.39538254 0.09311538 2.79140897 0.125 4.1875 C0.14820313 4.96480469 0.17140625 5.74210937 0.1953125 6.54296875 C0 9 0 9 -2 14 C-12.23 14 -22.46 14 -33 14 C-33.33 12.02 -33.66 10.04 -34 8 C-23.47818609 3.22079188 -11.65560166 0 0 0 Z " fill="#FFFFFF" transform="translate(62,28)"/>
    <path d="M0 0 C6.31255164 6.58827229 6.57763186 16.39242855 7 25 C4.36 25 1.72 25 -1 25 C-1.32871094 24.05640625 -1.32871094 24.05640625 -1.6640625 23.09375 C-4.83663748 14.53037689 -9.38459086 8.22626743 -16 2 C-10.94657731 -0.12775692 -5.42258902 -1.10131756 0 0 Z " fill="#FFFFFF" transform="translate(66,0)"/>
    <path d="M0 0 C6.69891766 1.65788103 11.60695547 3.66211636 17 8 C16.80664062 8.64066406 16.61328125 9.28132812 16.4140625 9.94140625 C14.9059252 14.95110985 13.42282214 19.96539857 12 25 C10.02 25 8.04 25 6 25 C5.73445313 23.90300781 5.46890625 22.80601563 5.1953125 21.67578125 C4.83873185 20.22130753 4.4819504 18.76688302 4.125 17.3125 C3.95097656 16.59126953 3.77695313 15.87003906 3.59765625 15.12695312 C2.83965641 12.05284268 2.06830448 9.16699268 0.8671875 6.23046875 C0 4 0 4 0 0 Z " fill="#FFFFFF" transform="translate(71,0)"/>
    <path d="M0 0 C1.77119803 0.14133499 3.54195287 0.28823208 5.3125 0.4375 C6.29863281 0.51871094 7.28476563 0.59992187 8.30078125 0.68359375 C11 1 11 1 14 2 C14.0270043 3.45823212 14.04639787 4.91660675 14.0625 6.375 C14.07410156 7.18710937 14.08570312 7.99921875 14.09765625 8.8359375 C14 11 14 11 13 13 C9.7 13 6.4 13 3 13 C1.26315467 9.52630934 0.69915888 7.92380063 0.375 4.25 C0.30023438 3.45078125 0.22546875 2.6515625 0.1484375 1.828125 C0.09945312 1.22484375 0.05046875 0.6215625 0 0 Z " fill="#FFFFFF" transform="translate(86,29)"/>
    <path d="M0 0 C2.64 0 5.28 0 8 0 C8 4.62 8 9.24 8 14 C4.37 14 0.74 14 -3 14 C-2.01 9.38 -1.02 4.76 0 0 Z " fill="#FFFFFF" transform="translate(66,28)"/>
    <path d="M0 0 C3.61097716 1.20365905 3.87109031 2.00042499 5.625 5.25 C6.05039063 6.01828125 6.47578125 6.7865625 6.9140625 7.578125 C8.02632897 10.05871929 8.5728434 12.32315197 9 15 C7.18706911 14.85962479 5.3746557 14.71255111 3.5625 14.5625 C2.04849609 14.44068359 2.04849609 14.44068359 0.50390625 14.31640625 C-2 14 -2 14 -3 13 C-2.94921875 11.07421875 -2.94921875 11.07421875 -2.6875 8.6875 C-2.60886719 7.90761719 -2.53023438 7.12773437 -2.44921875 6.32421875 C-1.98413721 3.91792729 -1.19341444 2.12866168 0 0 Z " fill="#FFFFFF" transform="translate(90,12)"/>
    <path d="M0 0 C1.98 0 3.96 0 6 0 C6.66 4.62 7.32 9.24 8 14 C5.36 14 2.72 14 0 14 C0 9.38 0 4.76 0 0 Z " fill="#FFFFFF" transform="translate(77,28)"/>
</svg>
